<svg width="40" height="37"  viewBox="0 0 53 50" fill="none" xmlns="http://www.w3.org/2000/svg">
<path d="M43.7691 43.5C39.1707 43.5 34.6276 42.5542 30.1396 40.6625C25.6516 38.7708 21.5683 36.0882 17.8896 32.6146C14.2109 29.1424 11.3695 25.2882 9.36536 21.0521C7.36121 16.816 6.35841 12.5278 6.35693 8.1875C6.35693 7.5625 6.57765 7.04167 7.0191 6.625C7.46054 6.20833 8.01234 6 8.6745 6H17.6137C18.1287 6 18.5885 6.16528 18.9932 6.49583C19.3979 6.82639 19.637 7.21667 19.7105 7.66667L21.1452 14.9583C21.2188 15.5139 21.2004 15.9826 21.09 16.3646C20.9797 16.7465 20.7774 17.0764 20.4831 17.3542L15.1306 22.4583C15.8663 23.7431 16.7396 24.984 17.7505 26.1812C18.7614 27.3785 19.8746 28.5333 21.09 29.6458C22.2304 30.7222 23.426 31.7208 24.6768 32.6417C25.9275 33.5625 27.2518 34.4042 28.6497 35.1667L33.8367 30.2708C34.1677 29.9583 34.6004 29.7243 35.1345 29.5687C35.6686 29.4132 36.1925 29.3694 36.706 29.4375L44.3209 30.8958C44.8359 31.0347 45.259 31.2868 45.59 31.6521C45.9211 32.0174 46.0867 32.425 46.0867 32.875V41.3125C46.0867 41.9375 45.8659 42.4583 45.4245 42.875C44.9831 43.2917 44.4313 43.5 43.7691 43.5Z" fill="#0F4C75"/>
</svg>
