<svg width="40" height="37"  viewBox="0 0 53 50" fill="none" xmlns="http://www.w3.org/2000/svg">
<g clip-path="url(#clip0_92_425)">
<path d="M43.0999 9.99795C45.7751 15.4313 45.1681 21.8271 42.206 27.025C39.7759 31.2896 36.1494 34.8167 33.1609 38.7209C31.7946 40.5084 30.4151 42.3667 29.477 44.4021C29.1658 45.0792 28.8965 45.773 28.6317 46.4688C28.3646 47.1625 28.1373 47.8709 27.8812 48.5688C27.6406 49.2229 27.3603 49.9938 26.4973 50H26.4819C25.4533 49.998 25.2039 48.8959 24.9478 48.1521C24.321 46.3313 23.6655 44.5834 22.6987 42.8917C21.573 40.925 20.1715 39.1063 18.7478 37.3271L43.0999 9.99795ZM18.8604 16.0521L10.122 25.8584C11.7201 29.0667 14.1414 31.8229 16.4589 34.5667C17.0041 35.2125 17.5493 35.8625 18.0856 36.5167L29.0864 24.1729L29.0224 24.1938C25.1796 25.4459 20.8755 23.5875 19.3283 20.0542C19.1166 19.5746 18.9619 19.0743 18.867 18.5625C18.7279 17.6521 18.697 16.9771 18.8582 16.0667L18.8604 16.0521ZM12.1218 6.56045L12.1151 6.56878C7.81771 11.7063 7.08051 18.8188 9.64969 24.8396L20.2112 12.9875L20.0832 12.8834L12.1218 6.56045ZM32.3596 0.908367L23.8884 10.4146C23.9079 10.4068 23.9278 10.3998 23.948 10.3938C27.4795 9.24587 31.4591 10.7063 33.2624 13.7813C33.6509 14.4459 33.9753 15.2042 34.0945 15.9584C34.2446 16.8875 34.2821 17.5688 34.121 18.5L34.1144 18.5334L42.5812 9.03128C40.3686 5.22222 36.7313 2.3283 32.3795 0.914617L32.3596 0.908367ZM20.8932 12.225L31.2583 0.593784L31.1545 0.568784C29.6208 0.188254 28.0412 -0.00292397 26.4554 3.37997e-05C23.8875 0.0227354 21.3524 0.546362 19.0092 1.53803C16.6659 2.52969 14.5653 3.96797 12.8391 5.76253L12.8038 5.80003L20.8932 12.225Z" fill="#0F4C75"/>
</g>
<defs>
<clipPath id="clip0_92_425">
<rect width="52.973" height="50" fill="white"/>
</clipPath>
</defs>
</svg>
